# xmcd CD database file
#
# Track frame offsets:
#	150
#	18902
#	38042
#	56147
#	75430
#	102292
#	123965
#	145250
#	168555
#	184877
#	202190
#
# Disc length: 2900 seconds
#
# Revision: 0
# Processed by: cddbd v1.5.1PL2 Copyright (c) Steve Scherf et al.
# Submitted via: CDex 1.51
#
DISCID=940b520b
DTITLE=David Étienne - libéré sur parole
DYEAR=1998
DGENRE=Québécois
TTITLE0=vous naviguez
TTITLE1=sans rien savoir
TTITLE2=ensorceller ma cervelle
TTITLE3=femmes d'affaires
TTITLE4=libéré sur parole
TTITLE5=bonhomme 6h00
TTITLE6=pris au piège
TTITLE7=laisse tomber
TTITLE8=belle promise
TTITLE9=vous
TTITLE10=désillusionsés
EXTD=YEAR: 1998
EXTT0=
EXTT1=
EXTT2=
EXTT3=
EXTT4=
EXTT5=
EXTT6=
EXTT7=
EXTT8=
EXTT9=
EXTT10=
PLAYORDER=
